<mxfile host="app.diagrams.net" modified="2024-03-04T04:04:31.462Z" agent="Mozilla/5.0 (Windows NT 10.0; Win64; x64) AppleWebKit/537.36 (KHTML, like Gecko) Chrome/122.0.0.0 Safari/537.36" etag="kU8AtLetqoRNXllYaSCU" version="24.0.1" type="github">
  <diagram name="第 1 页" id="p39dXnjNt2d64MNdaQHX">
    <mxGraphModel dx="2270" dy="699" grid="1" gridSize="10" guides="1" tooltips="1" connect="1" arrows="1" fold="1" page="1" pageScale="1" pageWidth="827" pageHeight="1169" math="0" shadow="0">
      <root>
        <mxCell id="0" />
        <mxCell id="1" parent="0" />
        <mxCell id="tb8oyuOAFIxV61g0iYeD-8" style="edgeStyle=orthogonalEdgeStyle;rounded=0;orthogonalLoop=1;jettySize=auto;html=1;exitX=1;exitY=0.5;exitDx=0;exitDy=0;" parent="1" source="tb8oyuOAFIxV61g0iYeD-6" target="tb8oyuOAFIxV61g0iYeD-7" edge="1">
          <mxGeometry relative="1" as="geometry" />
        </mxCell>
        <mxCell id="tb8oyuOAFIxV61g0iYeD-6" value="立即报名" style="rounded=1;whiteSpace=wrap;html=1;" parent="1" vertex="1">
          <mxGeometry x="-20" y="160" width="120" height="60" as="geometry" />
        </mxCell>
        <mxCell id="tb8oyuOAFIxV61g0iYeD-10" style="edgeStyle=orthogonalEdgeStyle;rounded=0;orthogonalLoop=1;jettySize=auto;html=1;exitX=1;exitY=0.5;exitDx=0;exitDy=0;entryX=0;entryY=0.5;entryDx=0;entryDy=0;" parent="1" source="tb8oyuOAFIxV61g0iYeD-7" target="tb8oyuOAFIxV61g0iYeD-9" edge="1">
          <mxGeometry relative="1" as="geometry" />
        </mxCell>
        <mxCell id="tb8oyuOAFIxV61g0iYeD-16" value="" style="edgeStyle=orthogonalEdgeStyle;rounded=0;orthogonalLoop=1;jettySize=auto;html=1;" parent="1" source="tb8oyuOAFIxV61g0iYeD-7" target="tb8oyuOAFIxV61g0iYeD-15" edge="1">
          <mxGeometry relative="1" as="geometry" />
        </mxCell>
        <mxCell id="tb8oyuOAFIxV61g0iYeD-7" value="选择票种" style="rounded=1;whiteSpace=wrap;html=1;" parent="1" vertex="1">
          <mxGeometry x="190" y="160" width="120" height="60" as="geometry" />
        </mxCell>
        <mxCell id="tb8oyuOAFIxV61g0iYeD-14" value="" style="edgeStyle=orthogonalEdgeStyle;rounded=0;orthogonalLoop=1;jettySize=auto;html=1;" parent="1" source="tb8oyuOAFIxV61g0iYeD-9" target="tb8oyuOAFIxV61g0iYeD-13" edge="1">
          <mxGeometry relative="1" as="geometry" />
        </mxCell>
        <mxCell id="tb8oyuOAFIxV61g0iYeD-42" style="edgeStyle=orthogonalEdgeStyle;rounded=0;orthogonalLoop=1;jettySize=auto;html=1;exitX=1;exitY=0.5;exitDx=0;exitDy=0;entryX=0;entryY=0.5;entryDx=0;entryDy=0;" parent="1" source="tb8oyuOAFIxV61g0iYeD-9" target="tb8oyuOAFIxV61g0iYeD-11" edge="1">
          <mxGeometry relative="1" as="geometry" />
        </mxCell>
        <mxCell id="tb8oyuOAFIxV61g0iYeD-9" value="填写报名表单" style="rounded=1;whiteSpace=wrap;html=1;" parent="1" vertex="1">
          <mxGeometry x="380" y="160" width="120" height="60" as="geometry" />
        </mxCell>
        <mxCell id="tb8oyuOAFIxV61g0iYeD-24" value="" style="edgeStyle=orthogonalEdgeStyle;rounded=0;orthogonalLoop=1;jettySize=auto;html=1;" parent="1" source="tb8oyuOAFIxV61g0iYeD-11" target="tb8oyuOAFIxV61g0iYeD-23" edge="1">
          <mxGeometry relative="1" as="geometry" />
        </mxCell>
        <mxCell id="tb8oyuOAFIxV61g0iYeD-43" style="edgeStyle=orthogonalEdgeStyle;rounded=0;orthogonalLoop=1;jettySize=auto;html=1;exitX=1;exitY=0.5;exitDx=0;exitDy=0;entryX=0;entryY=0.5;entryDx=0;entryDy=0;" parent="1" source="tb8oyuOAFIxV61g0iYeD-11" target="tb8oyuOAFIxV61g0iYeD-29" edge="1">
          <mxGeometry relative="1" as="geometry" />
        </mxCell>
        <mxCell id="tb8oyuOAFIxV61g0iYeD-11" value="订单确认（付费则需要）" style="rounded=1;whiteSpace=wrap;html=1;" parent="1" vertex="1">
          <mxGeometry x="560" y="160" width="120" height="60" as="geometry" />
        </mxCell>
        <mxCell id="tb8oyuOAFIxV61g0iYeD-13" value="姓名&lt;div&gt;电话&lt;/div&gt;&lt;div&gt;邮箱&lt;br&gt;微信号&lt;/div&gt;" style="whiteSpace=wrap;html=1;rounded=1;" parent="1" vertex="1">
          <mxGeometry x="380" y="300" width="120" height="60" as="geometry" />
        </mxCell>
        <mxCell id="tb8oyuOAFIxV61g0iYeD-22" value="" style="edgeStyle=orthogonalEdgeStyle;rounded=0;orthogonalLoop=1;jettySize=auto;html=1;" parent="1" source="tb8oyuOAFIxV61g0iYeD-15" target="tb8oyuOAFIxV61g0iYeD-21" edge="1">
          <mxGeometry relative="1" as="geometry" />
        </mxCell>
        <mxCell id="tb8oyuOAFIxV61g0iYeD-15" value="票种&lt;div&gt;数量&lt;/div&gt;&lt;div&gt;合计&lt;/div&gt;" style="whiteSpace=wrap;html=1;rounded=1;" parent="1" vertex="1">
          <mxGeometry x="190" y="300" width="120" height="60" as="geometry" />
        </mxCell>
        <mxCell id="tb8oyuOAFIxV61g0iYeD-21" value="数量限制&lt;br&gt;已购票&lt;div&gt;已售罄&lt;br&gt;已截至&lt;/div&gt;" style="whiteSpace=wrap;html=1;rounded=1;fillColor=#ffe6cc;strokeColor=#d79b00;" parent="1" vertex="1">
          <mxGeometry x="190" y="470" width="120" height="90" as="geometry" />
        </mxCell>
        <mxCell id="tb8oyuOAFIxV61g0iYeD-26" value="" style="edgeStyle=orthogonalEdgeStyle;rounded=0;orthogonalLoop=1;jettySize=auto;html=1;" parent="1" source="tb8oyuOAFIxV61g0iYeD-23" target="tb8oyuOAFIxV61g0iYeD-25" edge="1">
          <mxGeometry relative="1" as="geometry" />
        </mxCell>
        <mxCell id="tb8oyuOAFIxV61g0iYeD-23" value="支付方式&lt;br&gt;优惠码" style="whiteSpace=wrap;html=1;rounded=1;" parent="1" vertex="1">
          <mxGeometry x="560" y="300" width="120" height="60" as="geometry" />
        </mxCell>
        <mxCell id="tb8oyuOAFIxV61g0iYeD-25" value="支付倒计时&lt;br&gt;支付方式&lt;br&gt;库存超卖-加锁" style="whiteSpace=wrap;html=1;rounded=1;fillColor=#ffe6cc;strokeColor=#d79b00;" parent="1" vertex="1">
          <mxGeometry x="559" y="500" width="120" height="60" as="geometry" />
        </mxCell>
        <mxCell id="tb8oyuOAFIxV61g0iYeD-44" style="edgeStyle=orthogonalEdgeStyle;rounded=0;orthogonalLoop=1;jettySize=auto;html=1;exitX=1;exitY=0.5;exitDx=0;exitDy=0;" parent="1" source="tb8oyuOAFIxV61g0iYeD-29" target="tb8oyuOAFIxV61g0iYeD-34" edge="1">
          <mxGeometry relative="1" as="geometry" />
        </mxCell>
        <mxCell id="tb8oyuOAFIxV61g0iYeD-46" value="" style="edgeStyle=orthogonalEdgeStyle;rounded=0;orthogonalLoop=1;jettySize=auto;html=1;" parent="1" source="tb8oyuOAFIxV61g0iYeD-29" target="tb8oyuOAFIxV61g0iYeD-45" edge="1">
          <mxGeometry relative="1" as="geometry" />
        </mxCell>
        <mxCell id="tb8oyuOAFIxV61g0iYeD-29" value="报名成功" style="rounded=1;whiteSpace=wrap;html=1;" parent="1" vertex="1">
          <mxGeometry x="760" y="160" width="120" height="60" as="geometry" />
        </mxCell>
        <mxCell id="tb8oyuOAFIxV61g0iYeD-38" value="" style="edgeStyle=orthogonalEdgeStyle;rounded=0;orthogonalLoop=1;jettySize=auto;html=1;" parent="1" source="tb8oyuOAFIxV61g0iYeD-34" target="tb8oyuOAFIxV61g0iYeD-37" edge="1">
          <mxGeometry relative="1" as="geometry" />
        </mxCell>
        <mxCell id="tb8oyuOAFIxV61g0iYeD-34" value="票券（电子票）" style="rounded=1;whiteSpace=wrap;html=1;" parent="1" vertex="1">
          <mxGeometry x="960" y="160" width="120" height="60" as="geometry" />
        </mxCell>
        <mxCell id="tb8oyuOAFIxV61g0iYeD-37" value="姓名&lt;br&gt;电话&lt;br&gt;&lt;div&gt;状态：已付款&lt;/div&gt;&lt;div&gt;票号&lt;br&gt;票种：免费票&lt;br&gt;票价：免费&lt;br&gt;实付金额：免费&lt;br&gt;有效期&lt;br&gt;活动说明&lt;/div&gt;" style="whiteSpace=wrap;html=1;rounded=1;fillColor=#ffe6cc;strokeColor=#d79b00;" parent="1" vertex="1">
          <mxGeometry x="960" y="300" width="120" height="60" as="geometry" />
        </mxCell>
        <mxCell id="tb8oyuOAFIxV61g0iYeD-41" value="用户表" style="shape=cylinder3;whiteSpace=wrap;html=1;boundedLbl=1;backgroundOutline=1;size=15;" parent="1" vertex="1">
          <mxGeometry x="50" y="680" width="60" height="80" as="geometry" />
        </mxCell>
        <mxCell id="tb8oyuOAFIxV61g0iYeD-45" value="邀请好友参加&lt;br&gt;- 微信&lt;br&gt;- 朋友圈&lt;br&gt;- 复制链接&lt;br&gt;- 下载海报&lt;br&gt;认识其他参与者" style="whiteSpace=wrap;html=1;rounded=1;fillColor=#ffe6cc;strokeColor=#d79b00;" parent="1" vertex="1">
          <mxGeometry x="760" y="300" width="120" height="60" as="geometry" />
        </mxCell>
        <mxCell id="tb8oyuOAFIxV61g0iYeD-47" value="活动表" style="shape=cylinder3;whiteSpace=wrap;html=1;boundedLbl=1;backgroundOutline=1;size=15;" parent="1" vertex="1">
          <mxGeometry x="170" y="680" width="60" height="80" as="geometry" />
        </mxCell>
        <mxCell id="tb8oyuOAFIxV61g0iYeD-49" value="发送短信" style="rounded=1;whiteSpace=wrap;html=1;" parent="1" vertex="1">
          <mxGeometry x="960" y="60" width="120" height="60" as="geometry" />
        </mxCell>
        <mxCell id="tb8oyuOAFIxV61g0iYeD-50" value="订单表" style="shape=cylinder3;whiteSpace=wrap;html=1;boundedLbl=1;backgroundOutline=1;size=15;" parent="1" vertex="1">
          <mxGeometry x="300" y="680" width="60" height="80" as="geometry" />
        </mxCell>
        <mxCell id="tb8oyuOAFIxV61g0iYeD-51" value="订单详情表" style="shape=cylinder3;whiteSpace=wrap;html=1;boundedLbl=1;backgroundOutline=1;size=15;" parent="1" vertex="1">
          <mxGeometry x="440" y="680" width="60" height="80" as="geometry" />
        </mxCell>
      </root>
    </mxGraphModel>
  </diagram>
</mxfile>
